<svg width="26" height="26" viewBox="0 0 26 26" fill="none" xmlns="http://www.w3.org/2000/svg">
<path d="M21 13C21 9.88765 20.8041 6.76708 20.6582 4.87891C20.6201 4.38712 20.207 4.0002 19.6904 4H6.30957C5.79302 4.0002 5.37991 4.38712 5.3418 4.87891C5.19587 6.76708 5 9.88765 5 13C5 16.1441 5.20036 19.2961 5.34668 21.1777L11.2695 16.9971C12.3067 16.2649 13.6933 16.2649 14.7305 16.9971L20.6523 21.1777C20.7987 19.2961 21 16.1441 21 13ZM23 13C23 16.2397 22.7929 19.4717 22.6445 21.3721C22.5228 22.927 20.7667 23.7062 19.5225 22.8281L13.5771 18.6309C13.2314 18.3868 12.7686 18.3868 12.4229 18.6309L6.47754 22.8281C5.23332 23.7062 3.47721 22.927 3.35547 21.3721C3.20707 19.4717 3 16.2397 3 13C3 9.81441 3.19991 6.63635 3.34766 4.72461C3.46816 3.16806 4.77168 2.0002 6.30957 2H19.6904C21.2283 2.0002 22.5318 3.16806 22.6523 4.72461C22.8001 6.63635 23 9.81441 23 13Z" fill="#00BBA7"/>
</svg>
