<svg width="26" height="26" viewBox="0 0 26 26" fill="none" xmlns="http://www.w3.org/2000/svg">
<path d="M13 6C14.6249 6 15.9751 7.24641 15.9961 8.87109C15.9987 9.07392 16 9.28428 16 9.5C16 9.71572 15.9987 9.92608 15.9961 10.1289C15.9751 11.7536 14.6249 13 13 13C11.3751 13 10.0249 11.7536 10.0039 10.1289C10.0013 9.92608 10 9.71572 10 9.5C10 9.28428 10.0013 9.07392 10.0039 8.87109C10.0249 7.24641 11.3751 6 13 6Z" fill="#00BBA7"/>
<path fill-rule="evenodd" clip-rule="evenodd" d="M19.9385 2C21.3191 2.00001 22.5634 2.97223 22.7051 4.44922C22.846 5.9186 23 8.54328 23 13C23 17.4567 22.846 20.0814 22.7051 21.5508C22.5634 23.0278 21.3191 24 19.9385 24H6.06152C4.68085 24 3.43656 23.0278 3.29492 21.5508C3.15402 20.0814 3 17.4567 3 13C3 8.54328 3.15402 5.9186 3.29492 4.44922C3.43656 2.97223 4.68085 2.00001 6.06152 2H19.9385ZM18.8252 20.6484C15.6666 17.2928 10.3334 17.2928 7.1748 20.6484L5.91309 21.9883C5.96035 21.9954 6.00979 22 6.06152 22H19.9385C19.9899 22 20.039 21.9954 20.0859 21.9883L18.8252 20.6484ZM6.06152 4C5.60691 4.00001 5.31987 4.28973 5.28613 4.63965C5.15309 6.02697 5 8.58499 5 13C5 16.1459 5.07808 18.3489 5.1709 19.8574L5.71777 19.2783C9.66614 15.0832 16.3339 15.0832 20.2822 19.2783L20.8281 19.8574C20.9209 18.3489 21 16.1459 21 13C21 8.58499 20.8469 6.02697 20.7139 4.63965C20.6801 4.28973 20.3931 4.00001 19.9385 4H6.06152Z" fill="#00BBA7"/>
</svg>
