<svg width="26" height="26" viewBox="0 0 26 26" fill="none" xmlns="http://www.w3.org/2000/svg">
<path fill-rule="evenodd" clip-rule="evenodd" d="M10.5439 3.64374C11.9884 2.52028 14.0116 2.52028 15.4561 3.64374L21.4561 8.30975C22.4301 9.06749 22.9999 10.2329 23 11.467V21.0002C22.9998 22.6569 21.6567 24.0002 20 24.0002H6C4.34327 24.0002 3.0002 22.6569 3 21.0002V11.467C3.00014 10.2329 3.56986 9.06749 4.54395 8.30975L10.5439 3.64374ZM14.2275 5.22186C13.5054 4.66046 12.4946 4.66046 11.7725 5.22186L5.77246 9.88886C5.28552 10.2677 5.00014 10.85 5 11.467V21.0002C5.0002 21.5523 5.44784 22.0002 6 22.0002H9.03516C9.015 21.4479 9 20.7812 9 20.0002C9 18.8651 9.02977 17.9714 9.06445 17.3195C9.10214 16.6113 9.65801 16.0717 10.3506 16.007L10.4912 16.0002H15.5088C16.2653 16.0002 16.8953 16.5641 16.9355 17.3195C16.9702 17.9714 17 18.8651 17 20.0002C17 20.7812 16.985 21.4479 16.9648 22.0002H20C20.5522 22.0002 20.9998 21.5523 21 21.0002V11.467C20.9999 10.85 20.7145 10.2677 20.2275 9.88886L14.2275 5.22186ZM11.04 18.0002C11.0193 18.5416 11 19.2083 11 20.0002C11 20.7921 11.0164 21.4588 11.0371 22.0002H14.9629C14.9836 21.4588 15 20.7921 15 20.0002C15 19.2083 14.9807 18.5416 14.96 18.0002H11.04Z" fill="#00BBA7"/>
</svg>
